<mxfile host="app.diagrams.net" agent="Mozilla/5.0 (Windows NT 10.0; Win64; x64) AppleWebKit/537.36 (KHTML, like Gecko) Chrome/129.0.0.0 Safari/537.36" version="24.7.16">
  <diagram name="Página-1" id="uc4TH7y9ghvhZKgbEzJn">
    <mxGraphModel dx="880" dy="426" grid="1" gridSize="10" guides="1" tooltips="1" connect="1" arrows="1" fold="1" page="1" pageScale="1" pageWidth="827" pageHeight="1169" math="0" shadow="0">
      <root>
        <mxCell id="0" />
        <mxCell id="1" parent="0" />
        <mxCell id="h23NwJkyJX22PZot75RO-8" style="edgeStyle=orthogonalEdgeStyle;rounded=0;orthogonalLoop=1;jettySize=auto;html=1;exitX=0.5;exitY=1;exitDx=0;exitDy=0;entryX=0.5;entryY=0;entryDx=0;entryDy=0;" edge="1" parent="1" source="h23NwJkyJX22PZot75RO-1" target="h23NwJkyJX22PZot75RO-2">
          <mxGeometry relative="1" as="geometry" />
        </mxCell>
        <mxCell id="h23NwJkyJX22PZot75RO-1" value="INICIO&amp;nbsp;&lt;div&gt;(CHECAR PALIDROMO)&lt;/div&gt;" style="rounded=0;whiteSpace=wrap;html=1;" vertex="1" parent="1">
          <mxGeometry x="80" y="10" width="190" height="60" as="geometry" />
        </mxCell>
        <mxCell id="h23NwJkyJX22PZot75RO-9" style="edgeStyle=orthogonalEdgeStyle;rounded=0;orthogonalLoop=1;jettySize=auto;html=1;exitX=0.5;exitY=1;exitDx=0;exitDy=0;" edge="1" parent="1" source="h23NwJkyJX22PZot75RO-2" target="h23NwJkyJX22PZot75RO-3">
          <mxGeometry relative="1" as="geometry" />
        </mxCell>
        <mxCell id="h23NwJkyJX22PZot75RO-2" value="RECEBER PALAVRA DO USUARIO" style="rounded=0;whiteSpace=wrap;html=1;" vertex="1" parent="1">
          <mxGeometry x="120" y="100" width="120" height="60" as="geometry" />
        </mxCell>
        <mxCell id="h23NwJkyJX22PZot75RO-10" style="edgeStyle=orthogonalEdgeStyle;rounded=0;orthogonalLoop=1;jettySize=auto;html=1;exitX=0.5;exitY=1;exitDx=0;exitDy=0;entryX=0.5;entryY=0;entryDx=0;entryDy=0;" edge="1" parent="1" source="h23NwJkyJX22PZot75RO-3" target="h23NwJkyJX22PZot75RO-4">
          <mxGeometry relative="1" as="geometry" />
        </mxCell>
        <mxCell id="h23NwJkyJX22PZot75RO-3" value="SALVAR EM OUTRA VARIAVEL A PALAVRA INVERTIDA" style="rounded=0;whiteSpace=wrap;html=1;" vertex="1" parent="1">
          <mxGeometry x="120" y="190" width="120" height="60" as="geometry" />
        </mxCell>
        <mxCell id="h23NwJkyJX22PZot75RO-11" value="NÃO" style="edgeStyle=orthogonalEdgeStyle;rounded=0;orthogonalLoop=1;jettySize=auto;html=1;exitX=1;exitY=0.5;exitDx=0;exitDy=0;entryX=0;entryY=0.5;entryDx=0;entryDy=0;" edge="1" parent="1" source="h23NwJkyJX22PZot75RO-4" target="h23NwJkyJX22PZot75RO-6">
          <mxGeometry relative="1" as="geometry" />
        </mxCell>
        <mxCell id="h23NwJkyJX22PZot75RO-13" style="edgeStyle=orthogonalEdgeStyle;rounded=0;orthogonalLoop=1;jettySize=auto;html=1;exitX=0.5;exitY=1;exitDx=0;exitDy=0;entryX=0.5;entryY=0;entryDx=0;entryDy=0;" edge="1" parent="1" source="h23NwJkyJX22PZot75RO-4" target="h23NwJkyJX22PZot75RO-5">
          <mxGeometry relative="1" as="geometry" />
        </mxCell>
        <mxCell id="h23NwJkyJX22PZot75RO-4" value="PALAVRA == PALAVRA INVERTIDA?" style="rhombus;whiteSpace=wrap;html=1;" vertex="1" parent="1">
          <mxGeometry x="70" y="310" width="220" height="130" as="geometry" />
        </mxCell>
        <mxCell id="h23NwJkyJX22PZot75RO-16" value="SIM" style="edgeStyle=orthogonalEdgeStyle;rounded=0;orthogonalLoop=1;jettySize=auto;html=1;" edge="1" parent="1" source="h23NwJkyJX22PZot75RO-5" target="h23NwJkyJX22PZot75RO-4">
          <mxGeometry relative="1" as="geometry" />
        </mxCell>
        <mxCell id="h23NwJkyJX22PZot75RO-5" value="É UM PALINDROMO" style="rounded=0;whiteSpace=wrap;html=1;" vertex="1" parent="1">
          <mxGeometry x="100" y="490" width="160" height="90" as="geometry" />
        </mxCell>
        <mxCell id="h23NwJkyJX22PZot75RO-12" style="edgeStyle=orthogonalEdgeStyle;rounded=0;orthogonalLoop=1;jettySize=auto;html=1;exitX=0.5;exitY=1;exitDx=0;exitDy=0;" edge="1" parent="1" source="h23NwJkyJX22PZot75RO-6">
          <mxGeometry relative="1" as="geometry">
            <mxPoint x="560" y="480" as="targetPoint" />
          </mxGeometry>
        </mxCell>
        <mxCell id="h23NwJkyJX22PZot75RO-6" value="NÃO É UM PALINDROMO" style="rounded=0;whiteSpace=wrap;html=1;" vertex="1" parent="1">
          <mxGeometry x="480" y="330" width="160" height="90" as="geometry" />
        </mxCell>
        <mxCell id="h23NwJkyJX22PZot75RO-7" value="FIM" style="rounded=0;whiteSpace=wrap;html=1;" vertex="1" parent="1">
          <mxGeometry x="480" y="480" width="180" height="100" as="geometry" />
        </mxCell>
        <mxCell id="h23NwJkyJX22PZot75RO-15" style="edgeStyle=orthogonalEdgeStyle;rounded=0;orthogonalLoop=1;jettySize=auto;html=1;exitX=1;exitY=0.5;exitDx=0;exitDy=0;entryX=-0.011;entryY=0.57;entryDx=0;entryDy=0;entryPerimeter=0;" edge="1" parent="1" source="h23NwJkyJX22PZot75RO-5" target="h23NwJkyJX22PZot75RO-7">
          <mxGeometry relative="1" as="geometry" />
        </mxCell>
      </root>
    </mxGraphModel>
  </diagram>
</mxfile>
